<svg width="42" height="37" viewBox="0 0 42 37" fill="none" xmlns="http://www.w3.org/2000/svg">
<rect width="42" height="37" fill="#E5E5E5"/>
<rect width="1270" height="644" transform="translate(-390 -289)" fill="#f7f7f9"/>
<circle cx="18" cy="19" r="18" fill="#2EA7FF"/>
<path d="M20.4883 9.04688C20.9727 9.04688 21.4766 9.10547 22 9.22266C22.5312 9.33203 23.0156 9.54297 23.4531 9.85547C23.8906 10.1602 24.25 10.5859 24.5312 11.1328C24.8125 11.6797 24.9531 12.3828 24.9531 13.2422C24.9531 14.0391 24.8594 14.7383 24.6719 15.3398C24.4922 15.9336 24.25 16.4492 23.9453 16.8867C23.6406 17.3164 23.2891 17.6719 22.8906 17.9531C22.5 18.2344 22.0938 18.4609 21.6719 18.6328C21.25 18.7969 20.8281 18.9141 20.4062 18.9844C19.9844 19.0469 19.5938 19.0781 19.2344 19.0781C18.7188 19.0781 18.2773 19.0547 17.9102 19.0078C17.543 18.9531 17.2344 18.8906 16.9844 18.8203C16.9922 19.2188 16.9961 19.6328 16.9961 20.0625C17.0039 20.4844 17.0078 20.8867 17.0078 21.2695C17.0156 21.6445 17.0195 21.9805 17.0195 22.2773C17.0273 22.5664 17.0312 22.7734 17.0312 22.8984C17.0391 23.1719 17.0547 23.5156 17.0781 23.9297C17.1016 24.3359 17.1367 24.7578 17.1836 25.1953C17.2383 25.6328 17.3047 26.0625 17.3828 26.4844C17.4688 26.8984 17.5742 27.2461 17.6992 27.5273C17.832 27.8242 18.0039 28.0781 18.2148 28.2891C18.4258 28.5 18.6523 28.6758 18.8945 28.8164C19.1445 28.957 19.4023 29.0703 19.668 29.1562C19.9336 29.2422 20.1914 29.3086 20.4414 29.3555C20.5664 29.3789 20.6914 29.3984 20.8164 29.4141C20.9492 29.4375 21.0664 29.4609 21.168 29.4844C21.2695 29.5156 21.3516 29.5508 21.4141 29.5898C21.4844 29.6367 21.5195 29.6953 21.5195 29.7656C21.5195 29.8594 21.4805 29.9336 21.4023 29.9883C21.3242 30.043 21.1641 30.0703 20.9219 30.0703C20.6719 30.0703 20.3555 30.0312 19.9727 29.9531C19.5898 29.8828 19.1602 29.8008 18.6836 29.707C18.2148 29.6211 17.7148 29.5391 17.1836 29.4609C16.6523 29.3906 16.1211 29.3555 15.5898 29.3555C15.0117 29.3555 14.4648 29.3867 13.9492 29.4492C13.4414 29.5117 12.9844 29.5781 12.5781 29.6484C12.1797 29.7266 11.8398 29.7969 11.5586 29.8594C11.2773 29.9219 11.0781 29.9531 10.9609 29.9531C10.9297 29.9531 10.8906 29.9492 10.8438 29.9414C10.8047 29.9414 10.7617 29.9336 10.7148 29.918C10.6758 29.9023 10.6406 29.8789 10.6094 29.8477C10.5859 29.8164 10.5742 29.7695 10.5742 29.707C10.5742 29.6211 10.625 29.5508 10.7266 29.4961C10.8359 29.4414 10.9766 29.3867 11.1484 29.332C11.3281 29.2773 11.5273 29.2109 11.7461 29.1328C11.9727 29.0625 12.1992 28.9688 12.4258 28.8516C12.8711 28.6094 13.207 28.293 13.4336 27.9023C13.6602 27.5117 13.8281 27.0586 13.9375 26.543C13.9844 26.3086 14.0312 25.9688 14.0781 25.5234C14.1328 25.0781 14.1836 24.5703 14.2305 24C14.2773 23.4219 14.3203 22.8047 14.3594 22.1484C14.4062 21.4844 14.4453 20.8242 14.4766 20.168C14.5078 19.5039 14.5312 18.8672 14.5469 18.2578C14.5703 17.6406 14.582 17.0898 14.582 16.6055C14.582 15.6523 14.5547 14.8125 14.5 14.0859C14.4453 13.3594 14.3281 12.793 14.1484 12.3867C14.0078 12.0664 13.8164 11.8125 13.5742 11.625C13.3398 11.4297 13.0781 11.2812 12.7891 11.1797C12.5078 11.0781 12.2109 11.0117 11.8984 10.9805C11.5859 10.9414 11.2812 10.9141 10.9844 10.8984C10.5938 10.8906 10.332 10.8633 10.1992 10.8164C10.0664 10.7617 10 10.6602 10 10.5117C10 10.2852 10.1992 10.1719 10.5977 10.1719C10.7695 10.1719 11.043 10.1836 11.418 10.207C11.793 10.2305 12.2422 10.2422 12.7656 10.2422C13.1484 10.2422 13.5664 10.2305 14.0195 10.207C14.4727 10.1836 14.9414 10.1406 15.4258 10.0781C15.832 10.0312 16.1914 9.97266 16.5039 9.90234C16.8242 9.82422 17.1172 9.75 17.3828 9.67969C17.6562 9.60156 17.9102 9.52734 18.1445 9.45703C18.3789 9.37891 18.6172 9.30859 18.8594 9.24609C19.1016 9.18359 19.3516 9.13672 19.6094 9.10547C19.875 9.06641 20.168 9.04688 20.4883 9.04688ZM17.125 12.6211C17.0938 12.9492 17.0703 13.3281 17.0547 13.7578C17.0391 14.1797 17.0234 14.6328 17.0078 15.1172C17 15.6016 16.9922 16.1055 16.9844 16.6289C16.9844 17.1523 16.9844 17.6719 16.9844 18.1875C17.2344 18.2656 17.5156 18.3242 17.8281 18.3633C18.1406 18.3945 18.5156 18.4102 18.9531 18.4102C19.5391 18.4102 20.0352 18.2695 20.4414 17.9883C20.8555 17.707 21.1875 17.3359 21.4375 16.875C21.6953 16.4062 21.8789 15.8789 21.9883 15.293C22.1055 14.6992 22.1641 14.0977 22.1641 13.4883C22.1641 12.9883 22.1172 12.5039 22.0234 12.0352C21.9375 11.5664 21.793 11.1562 21.5898 10.8047C21.3867 10.4453 21.1133 10.1602 20.7695 9.94922C20.4258 9.73047 20.0039 9.62109 19.5039 9.62109C19.1133 9.62109 18.7773 9.69141 18.4961 9.83203C18.2148 9.97266 17.9805 10.1758 17.793 10.4414C17.6055 10.6992 17.457 11.0156 17.3477 11.3906C17.2461 11.7578 17.1719 12.168 17.125 12.6211Z" fill="white"/>
</svg>
